<?xml version="1.0" encoding="UTF-8" standalone="no"?><svg xmlns="http://www.w3.org/2000/svg" xmlns:xlink="http://www.w3.org/1999/xlink" fill="#000000" height="126" preserveAspectRatio="xMidYMid meet" version="1" viewBox="-0.1 0.0 126.1 126.0" width="126.1" zoomAndPan="magnify"><linearGradient gradientUnits="userSpaceOnUse" id="a" x1="63" x2="63" xlink:actuate="onLoad" xlink:show="other" xlink:type="simple" y1="0" y2="126.001"><stop offset="0" stop-color="#efcb58"/><stop offset="1" stop-color="#efcb58"/></linearGradient><path d="M88.837,20.835c-0.553,0-1-0.448-1-1v-8.834c0-0.552,0.447-1,1-1s1,0.448,1,1v8.834 C89.837,20.387,89.39,20.835,88.837,20.835z M73.298,77.045c-0.531-0.165-1.088,0.132-1.251,0.659 c-0.163,0.528,0.132,1.088,0.659,1.251c3.265,1.011,6.536,2.66,9.724,4.9c0.175,0.123,0.376,0.182,0.574,0.182 c0.314,0,0.624-0.148,0.819-0.425c0.317-0.452,0.209-1.076-0.243-1.393C80.221,79.858,76.762,78.117,73.298,77.045z M73.298,63.24 c-0.531-0.165-1.088,0.132-1.251,0.659c-0.163,0.528,0.132,1.088,0.659,1.251c3.265,1.011,6.536,2.66,9.724,4.9 c0.175,0.123,0.376,0.182,0.574,0.182c0.314,0,0.624-0.148,0.819-0.425c0.317-0.452,0.209-1.076-0.243-1.393 C80.221,66.053,76.762,64.312,73.298,63.24z M73.298,49.435c-0.531-0.165-1.088,0.132-1.251,0.659 c-0.163,0.528,0.132,1.088,0.659,1.251c3.265,1.011,6.536,2.66,9.724,4.9c0.175,0.123,0.376,0.182,0.574,0.182 c0.314,0,0.624-0.148,0.819-0.425c0.317-0.452,0.209-1.076-0.243-1.393C80.221,52.248,76.762,50.507,73.298,49.435z M83.004,42.622 c0.314,0,0.624-0.148,0.819-0.425c0.317-0.452,0.209-1.076-0.243-1.393c-3.359-2.362-6.818-4.103-10.282-5.175 c-0.531-0.165-1.088,0.132-1.251,0.659c-0.163,0.528,0.132,1.088,0.659,1.251c3.265,1.011,6.536,2.66,9.724,4.9 C82.605,42.563,82.806,42.622,83.004,42.622z M82.872,29.429c0.314,0,0.624-0.148,0.819-0.425c0.317-0.452,0.209-1.076-0.243-1.393 c-3.355-2.36-6.814-4.101-10.281-5.175c-0.528-0.167-1.088,0.132-1.251,0.659c-0.164,0.527,0.132,1.088,0.659,1.251 c3.267,1.012,6.538,2.661,9.723,4.9C82.473,29.37,82.674,29.429,82.872,29.429z M94.669,84.038c0.198,0,0.399-0.059,0.574-0.182 c3.188-2.24,6.459-3.889,9.724-4.9c0.527-0.163,0.822-0.723,0.659-1.251c-0.163-0.527-0.72-0.823-1.251-0.659 c-3.465,1.073-6.924,2.814-10.282,5.175c-0.452,0.317-0.561,0.941-0.243,1.393C94.045,83.89,94.355,84.038,94.669,84.038z M94.669,70.232c0.198,0,0.399-0.059,0.574-0.182c3.188-2.24,6.459-3.889,9.724-4.9c0.527-0.163,0.822-0.723,0.659-1.251 c-0.163-0.527-0.72-0.823-1.251-0.659c-3.465,1.073-6.924,2.814-10.282,5.175c-0.452,0.317-0.561,0.941-0.243,1.393 C94.045,70.084,94.355,70.232,94.669,70.232z M94.669,56.427c0.198,0,0.399-0.059,0.574-0.182c3.188-2.24,6.459-3.889,9.724-4.9 c0.527-0.163,0.822-0.723,0.659-1.251c-0.163-0.527-0.72-0.823-1.251-0.659c-3.465,1.073-6.924,2.814-10.282,5.175 c-0.452,0.317-0.561,0.941-0.243,1.393C94.045,56.279,94.355,56.427,94.669,56.427z M93.85,42.197 c0.195,0.277,0.505,0.425,0.819,0.425c0.198,0,0.399-0.059,0.574-0.182c3.188-2.24,6.459-3.889,9.724-4.9 c0.527-0.163,0.822-0.723,0.659-1.251c-0.163-0.527-0.72-0.824-1.251-0.659c-3.465,1.073-6.924,2.814-10.282,5.175 C93.641,41.122,93.532,41.746,93.85,42.197z M94.801,29.429c0.198,0,0.399-0.059,0.574-0.182c3.187-2.24,6.458-3.889,9.724-4.9 c0.527-0.163,0.822-0.723,0.659-1.251c-0.163-0.527-0.721-0.825-1.251-0.659c-3.465,1.073-6.925,2.814-10.282,5.175 c-0.452,0.317-0.561,0.941-0.243,1.393C94.177,29.281,94.486,29.429,94.801,29.429z M28.391,32.758l-2.223-8.549 c-0.14-0.536-0.686-0.855-1.22-0.716s-0.854,0.685-0.716,1.219l2.223,8.549c0.117,0.45,0.522,0.749,0.967,0.749 c0.084,0,0.168-0.01,0.253-0.032C28.209,33.838,28.529,33.292,28.391,32.758z M38.032,94.709c-3.843-1.439-7.629-2.254-11.253-2.421 c-0.543-0.011-1.02,0.401-1.045,0.953s0.401,1.02,0.953,1.045c3.415,0.157,6.996,0.93,10.644,2.296 c0.115,0.043,0.233,0.064,0.351,0.064c0.405,0,0.786-0.248,0.937-0.649C38.812,95.479,38.55,94.903,38.032,94.709z M34.559,81.349 c-3.843-1.439-7.629-2.254-11.253-2.421c-0.556-0.014-1.021,0.401-1.045,0.953c-0.025,0.552,0.401,1.02,0.953,1.045 c3.415,0.157,6.996,0.93,10.644,2.296c0.115,0.043,0.233,0.064,0.351,0.064c0.405,0,0.786-0.248,0.937-0.649 C35.338,82.119,35.076,81.542,34.559,81.349z M31.085,67.987c-3.843-1.44-7.629-2.254-11.253-2.421 c-0.534-0.018-1.02,0.401-1.045,0.953c-0.025,0.552,0.401,1.02,0.953,1.045c3.415,0.157,6.996,0.929,10.644,2.296 c0.115,0.043,0.233,0.064,0.351,0.064c0.405,0,0.786-0.248,0.937-0.649C31.864,68.757,31.603,68.181,31.085,67.987z M26.91,56.5 c0.115,0.043,0.233,0.064,0.351,0.064c0.405,0,0.786-0.248,0.937-0.649c0.193-0.518-0.068-1.094-0.586-1.288 c-3.843-1.439-7.629-2.254-11.253-2.421c-0.547-0.021-1.02,0.401-1.045,0.953s0.401,1.02,0.953,1.045 C19.682,54.36,23.263,55.133,26.91,56.5z M23.464,43.764c0.115,0.043,0.234,0.064,0.351,0.064c0.405,0,0.786-0.248,0.937-0.65 c0.193-0.517-0.068-1.093-0.586-1.287c-3.845-1.44-7.63-2.254-11.253-2.421c-0.553-0.018-1.021,0.401-1.045,0.953 c-0.025,0.552,0.401,1.02,0.953,1.045C16.234,41.625,19.815,42.397,23.464,43.764z M48.322,93.474 c0.188,0.16,0.418,0.238,0.646,0.238c0.284,0,0.565-0.12,0.764-0.353c2.521-2.971,5.273-5.39,8.177-7.189 c0.47-0.291,0.614-0.907,0.323-1.377c-0.289-0.468-0.905-0.613-1.376-0.323c-3.082,1.909-5.992,4.465-8.649,7.596 C47.85,92.485,47.901,93.116,48.322,93.474z M44.849,80.112c0.188,0.16,0.418,0.238,0.647,0.238c0.283,0,0.564-0.12,0.763-0.353 c2.521-2.971,5.273-5.39,8.177-7.189c0.47-0.291,0.614-0.907,0.323-1.377c-0.289-0.469-0.906-0.614-1.376-0.323 c-3.082,1.909-5.991,4.464-8.649,7.595C44.376,79.124,44.428,79.755,44.849,80.112z M41.375,66.751 c0.188,0.16,0.418,0.238,0.646,0.238c0.284,0,0.565-0.12,0.764-0.353c2.521-2.971,5.273-5.39,8.177-7.189 c0.47-0.291,0.614-0.907,0.323-1.377c-0.29-0.469-0.906-0.614-1.376-0.323c-3.082,1.909-5.992,4.465-8.649,7.596 C40.902,65.763,40.954,66.394,41.375,66.751z M37.901,53.39c0.188,0.16,0.418,0.238,0.647,0.238c0.283,0,0.564-0.12,0.763-0.353 c2.521-2.971,5.273-5.39,8.177-7.189c0.47-0.291,0.614-0.907,0.323-1.377c-0.29-0.469-0.906-0.614-1.376-0.323 c-3.082,1.909-5.991,4.464-8.649,7.595C37.429,52.402,37.48,53.033,37.901,53.39z M34.709,40.589 c0.188,0.16,0.418,0.238,0.647,0.238c0.283,0,0.564-0.12,0.763-0.353c2.521-2.971,5.273-5.39,8.177-7.189 c0.47-0.291,0.614-0.907,0.323-1.377c-0.289-0.468-0.906-0.613-1.376-0.323c-3.082,1.909-5.991,4.464-8.649,7.595 C34.236,39.601,34.288,40.231,34.709,40.589z M0.304,118.692c-0.346-0.336-0.403-0.87-0.137-1.271 c0.406-0.611,10.12-14.954,24.737-13.56c11.137,1.065,20.171,12.141,23.997,17.62c-0.387-6.782-1.871-11.302-3.431-16.041 c-0.369-1.118-0.737-2.255-1.097-3.422c-1.84,0.242-3.602,0.37-5.272,0.37c-9.307,0-15.967-3.745-19.843-11.178 c-0.002-0.004-0.002-0.008-0.003-0.011c-0.002-0.005-0.006-0.008-0.008-0.012L17.91,88.45c-0.242-0.497-0.037-1.095,0.46-1.337 c0.493-0.243,1.095-0.037,1.337,0.459l0.873,1.788c1.809-0.999,3.591-1.725,5.342-2.164c-4.498-1.786-7.976-4.767-10.389-8.941 c-0.002-0.003-0.001-0.006-0.003-0.008c-0.002-0.004-0.006-0.007-0.008-0.011l-1.545-2.812c-0.267-0.484-0.09-1.092,0.395-1.358 c0.483-0.266,1.092-0.09,1.357,0.395l1.079,1.964c1.868-0.95,3.685-1.65,5.451-2.099c-4.614-1.736-7.878-4.75-9.741-9.043 c-0.001-0.001-0.002-0.002-0.002-0.003l-1.494-2.904c-0.252-0.491-0.059-1.094,0.433-1.347c0.49-0.255,1.094-0.06,1.347,0.432 l1.05,2.041c1.996-0.954,3.925-1.651,5.784-2.078c-4.484-1.806-8.018-4.943-10.556-9.42c0,0-0.001-0.001-0.001-0.001l-0.005-0.009 c-0.001-0.001-0.002-0.003-0.002-0.004c0,0,0,0,0,0l-2.113-3.604c-0.279-0.477-0.12-1.089,0.356-1.369 c0.477-0.28,1.089-0.12,1.368,0.357l1.611,2.747c1.929-1.154,3.818-1.985,5.662-2.472c-4.717-1.83-8.162-4.736-10.279-8.719 c-0.001-0.002-0.003-0.003-0.004-0.005l-1.813-3.259c-0.269-0.483-0.095-1.092,0.388-1.36c0.485-0.268,1.093-0.094,1.36,0.388 l1.412,2.538c6.879-2.258,11.576-2.975,16.586-0.859c-3.361-5.629-3.855-12.216-1.031-18.039l-0.858-3.3 c-0.139-0.534,0.182-1.08,0.716-1.219c0.535-0.138,1.08,0.181,1.22,0.716l0.858,3.3c5.302,3.709,8.078,9.703,7.885,16.255 c3.345-4.288,7.797-5.95,14.905-7.327l-0.004-2.904c-0.001-0.552,0.446-1.001,0.999-1.001h0.001c0.552,0,0.999,0.447,1,0.999 l0.005,3.709c0,0,0,0,0,0c0,0,0,0.001,0,0.001v0.019c0,0.001,0,0.002,0,0.003c0.091,4.513-1.507,8.73-4.738,12.628 c1.849-0.474,3.905-0.668,6.155-0.6l0.07-3.185c0.012-0.551,0.477-0.967,1.021-0.978c0.553,0.012,0.99,0.47,0.979,1.022 l-0.092,4.193c0,0.001-0.001,0.002-0.001,0.004c-0.037,5.143-1.593,9.604-4.628,13.364c1.831-0.532,3.855-0.863,6.062-1.001 l-0.078-2.294c-0.02-0.552,0.413-1.015,0.965-1.033c0.572-0.012,1.016,0.414,1.033,0.966l0.11,3.262 c0.465,4.66-0.922,8.884-4.109,12.65c1.762-0.469,3.693-0.743,5.789-0.823l-0.014-2.24c-0.004-0.552,0.441-1.003,0.993-1.006 c0.003,0,0.005,0,0.007,0c0.55,0,0.996,0.443,1,0.994l0.021,3.208c0,0.004-0.002,0.007-0.002,0.011c0,0.004,0.002,0.007,0.002,0.011 c-0.075,4.821-1.661,9.118-4.718,12.868c1.743-0.47,3.652-0.703,5.718-0.711l-0.108-1.987c-0.03-0.551,0.393-1.023,0.944-1.053 c0.508-0.029,1.022,0.392,1.052,0.944l0.165,3.042c0,0.004-0.002,0.007-0.002,0.011c0,0.006,0.003,0.01,0.003,0.016 c0.276,9.858-5.316,17.126-16.589,21.631c0.347,1.118,0.7,2.229,1.059,3.319c0.404,1.226,0.801,2.439,1.178,3.677 c5.09-4.991,16.6-8.19,23.317-6.123c5.68,1.748,9.983,6.758,12.147,13.969c2.265-7.942,3.731-15.671,3.815-25.462 c-12.069-1.517-19.322-7.146-21.537-16.767c-0.001-0.004,0-0.008,0-0.012c-0.001-0.005-0.004-0.009-0.005-0.014l-0.605-2.986 c-0.109-0.542,0.24-1.069,0.781-1.179c0.551-0.107,1.069,0.241,1.18,0.781l0.396,1.951c2.002-0.512,3.91-0.766,5.715-0.749 c-3.905-2.861-6.521-6.621-7.807-11.269c-0.001-0.003,0-0.006-0.001-0.009c-0.001-0.004-0.004-0.007-0.005-0.012l-0.787-3.11 c-0.135-0.536,0.188-1.08,0.725-1.215c0.531-0.137,1.078,0.188,1.215,0.724l0.55,2.172c2.048-0.45,3.986-0.671,5.809-0.66 c-4.03-2.842-6.435-6.579-7.157-11.203c0-0.002-0.002-0.003-0.002-0.005l-0.715-3.187c-0.121-0.539,0.218-1.074,0.757-1.194 c0.54-0.12,1.074,0.219,1.194,0.757l0.502,2.24c2.171-0.421,4.214-0.609,6.12-0.555c-3.884-2.875-6.513-6.802-7.843-11.771 c0-0.001-0.001-0.002-0.002-0.003l-1.144-4.036c-0.15-0.531,0.158-1.084,0.689-1.234c0.526-0.151,1.083,0.157,1.234,0.689 l0.868,3.065c2.16-0.632,4.2-0.961,6.109-0.968c-4.107-2.959-6.714-6.638-7.761-11.027c0-0.002-0.002-0.003-0.002-0.005 l-0.935-3.611c-0.139-0.535,0.183-1.08,0.717-1.219c0.532-0.137,1.081,0.183,1.219,0.718l0.728,2.812 c7.223-0.455,11.951,0.033,16.269,3.342C82.46,15.834,83.638,9.335,87.837,4.41V1c0-0.552,0.447-1,1-1s1,0.448,1,1v3.41 c4.198,4.924,5.376,11.424,3.541,17.717c4.317-3.309,9.045-3.797,16.269-3.341l0.728-2.812c0.138-0.535,0.686-0.855,1.219-0.718 c0.534,0.139,0.855,0.684,0.717,1.219l-0.935,3.611c0,0.002-0.002,0.003-0.002,0.005c-1.046,4.389-3.653,8.068-7.76,11.027 c1.909,0.007,3.948,0.336,6.108,0.968l0.868-3.065c0.15-0.533,0.707-0.842,1.234-0.689c0.531,0.15,0.84,0.703,0.689,1.234 l-1.144,4.036c0,0.001-0.001,0.002-0.002,0.003c-1.33,4.969-3.959,8.895-7.843,11.77c1.906-0.054,3.948,0.135,6.119,0.556 l0.502-2.24c0.121-0.538,0.659-0.875,1.194-0.757c0.539,0.121,0.878,0.656,0.757,1.194l-0.715,3.187 c0,0.002-0.001,0.003-0.002,0.005c-0.723,4.624-3.128,8.361-7.158,11.203c1.823-0.01,3.761,0.21,5.81,0.66l0.55-2.172 c0.136-0.535,0.68-0.861,1.215-0.724c0.536,0.135,0.859,0.679,0.725,1.215l-0.787,3.11c-0.001,0.004-0.004,0.007-0.005,0.012 c-0.001,0.003,0,0.006-0.001,0.009c-1.287,4.648-3.903,8.407-7.807,11.268c1.805-0.017,3.712,0.238,5.715,0.75l0.396-1.951 c0.11-0.541,0.633-0.892,1.18-0.781c0.541,0.11,0.891,0.637,0.781,1.179l-0.605,2.986c-0.001,0.005-0.004,0.009-0.005,0.014 c-0.001,0.004,0,0.008,0,0.012c-2.216,9.625-9.475,15.256-21.555,16.769c-0.068,8.106-1.062,14.82-2.665,21.377 c7.201-11.134,18.197-20.738,27.917-21.221c3.1-0.155,5.458,0.577,7.199,2.234C126,96.809,126,103.713,126,111.708 c0,0.509-0.382,0.937-0.888,0.994c-0.509,0.061-0.975-0.275-1.087-0.771l-0.295-1.311c-1.386-6.196-2.815-12.598-9.007-12.366 c-6.696,0.255-18.447,13.385-21.752,26.982C92.862,125.685,92.461,126,92,126h-9.985c-0.008,0-0.016,0-0.023,0s-0.016,0-0.022,0 h-3.195c-0.499,0-0.923-0.369-0.99-0.864c-0.015-0.104-1.526-10.45-9.313-15.363c-6.63-4.182-16.502-0.015-19.195,1.266 c1.006,3.818,1.727,8.112,1.727,13.957c0,0,0,0.001,0,0.001c0,0.001,0,0.003,0,0.004c0,0.003-0.002,0.005-0.002,0.008 c-0.001,0.114-0.028,0.226-0.067,0.334c-0.011,0.029-0.021,0.057-0.035,0.085c-0.011,0.023-0.016,0.048-0.029,0.071 c-0.044,0.077-0.098,0.146-0.159,0.208c-0.001,0.001-0.002,0.002-0.003,0.003c-0.081,0.08-0.177,0.14-0.279,0.188 c-0.027,0.013-0.053,0.023-0.081,0.034c-0.11,0.041-0.224,0.07-0.345,0.07h-6.999c-0.376,0-0.722-0.212-0.892-0.548 c-0.052-0.101-5.274-10.113-17.358-12.202c-12.18-2.106-23.066,5.465-23.175,5.541C1.182,119.071,0.647,119.026,0.304,118.692z M84.869,120.471c-0.025,0.084-0.063,0.165-0.109,0.239c-0.496,1.09-0.95,2.188-1.356,3.291h7.819 c3.552-13.324,15.392-27.439,23.425-27.745c5.05-0.19,7.602,3.025,9.141,7.035c-0.306-3.732-1.055-6.829-2.887-8.573 c-1.324-1.26-3.202-1.811-5.722-1.686C105.102,93.532,91.426,106.256,84.869,120.471z M89.837,83.806v5.057 c10.752-1.4,17.111-6.074,19.363-14.276C100.658,72.379,94.316,75.406,89.837,83.806z M92.254,76.973 c-0.784,0.188-1.589,0.36-2.417,0.515v2.466C90.598,78.849,91.402,77.85,92.254,76.973z M89.837,70.193v5.261 c10.699-2.077,17.157-6.78,19.662-14.356C100.323,59.107,93.879,62.094,89.837,70.193z M92.118,63.45 c-0.739,0.164-1.5,0.316-2.281,0.456v2.321C90.543,65.197,91.305,64.275,92.118,63.45z M89.837,56.355v5.52 c11.331-2.113,17.864-6.812,19.412-13.999C100.003,46.077,93.647,48.864,89.837,56.355z M91.721,50.247 c-0.614,0.121-1.244,0.227-1.884,0.325v1.923C90.424,51.676,91.051,50.926,91.721,50.247z M109.177,33.991 c-8.955-2.631-15.289,0.645-19.34,9.975v4.585c2.576-0.408,4.904-1.005,6.984-1.794c0.101-0.043,0.207-0.079,0.31-0.121 C103.327,44.199,107.308,40.023,109.177,33.991z M92.068,36.469c-0.724,0.214-1.468,0.419-2.231,0.614v2.487 C90.53,38.418,91.275,37.387,92.068,36.469z M91.473,26.72c-0.482,0.881-1.027,1.748-1.636,2.596v5.702 c2.608-0.686,4.956-1.478,7.046-2.38c0.323-0.163,0.656-0.302,0.99-0.439c6.003-2.803,9.718-6.589,11.246-11.445 C99.793,20.22,95.867,21.597,91.473,26.72z M88.837,27.255c4.514-6.94,4.517-15.072,0-20.926 C84.319,12.184,84.322,20.315,88.837,27.255z M79.8,32.2c0.335,0.137,0.668,0.277,0.992,0.44c2.089,0.902,4.438,1.694,7.045,2.38 v-5.702c-0.609-0.847-1.154-1.714-1.635-2.594c-4.394-5.126-8.32-6.502-17.647-5.968C70.083,25.611,73.798,29.396,79.8,32.2z M85.605,36.469c0.793,0.917,1.539,1.948,2.232,3.101v-2.487C87.074,36.888,86.329,36.684,85.605,36.469z M80.547,46.638 c0.101,0.041,0.205,0.076,0.305,0.119c2.081,0.789,4.408,1.386,6.984,1.794v-4.585c-4.051-9.33-10.387-12.606-19.34-9.975 C70.366,40.025,74.349,44.201,80.547,46.638z M85.953,50.247c0.67,0.678,1.297,1.429,1.884,2.248v-1.923 C87.197,50.475,86.566,50.368,85.953,50.247z M87.837,61.875v-5.52c-3.811-7.492-10.168-10.275-19.412-8.479 C69.972,55.063,76.505,59.761,87.837,61.875z M85.555,63.45c0.813,0.825,1.576,1.747,2.282,2.778v-2.322 C87.056,63.766,86.294,63.615,85.555,63.45z M87.837,75.453v-5.261c-4.044-8.099-10.481-11.085-19.662-9.096 C70.679,68.673,77.137,73.376,87.837,75.453z M85.419,76.973c0.852,0.878,1.656,1.877,2.417,2.981v-2.466 C87.009,77.332,86.203,77.16,85.419,76.973z M87.837,88.863v-5.056c-4.48-8.4-10.82-11.429-19.363-9.22 C70.726,82.789,77.085,87.463,87.837,88.863z M54.103,107.064c4.528-1.3,10.601-2.033,15.434,1.017 c7.295,4.603,9.531,13.162,10.078,15.919h1.663c0.46-1.304,0.995-2.624,1.595-3.945c-1.59-8.251-5.805-13.992-11.595-15.774 C66.495,102.81,59.231,104.409,54.103,107.064z M33.357,51.857c0.381-1.289,0.842-2.474,1.379-3.561 c-0.646,0.39-1.315,0.774-2.004,1.155L33.357,51.857z M36.609,64.367c0.362-0.94,0.78-1.824,1.257-2.649 c-0.563,0.271-1.146,0.533-1.741,0.788L36.609,64.367z M34.189,63.006c-0.639,0.066-1.277,0.131-1.896,0.169 c0.816,0.487,1.609,1.053,2.381,1.696L34.189,63.006z M40.065,77.659c0.424-1.176,0.93-2.261,1.51-3.264 c-0.674,0.345-1.374,0.684-2.094,1.016L40.065,77.659z M37.545,75.915c-0.791,0.06-1.566,0.106-2.323,0.133 c0.995,0.594,1.965,1.295,2.908,2.115L37.545,75.915z M43.518,90.942c0.459-1.26,0.985-2.43,1.589-3.494 c-0.711,0.379-1.447,0.748-2.21,1.106L43.518,90.942z M40.963,89.06c-0.84,0.058-1.663,0.095-2.468,0.11 c1.045,0.635,2.074,1.4,3.088,2.277L40.963,89.06z M44.487,94.67l1.273,4.895c10.054-4.061,15.032-10.185,15.148-18.689 C52.085,80.888,46.709,85.414,44.487,94.67z M57.803,67.745c-9.386,0.384-14.866,4.895-16.741,13.75l1.324,5.091 C52.217,81.884,57.284,75.708,57.803,67.745z M54.234,55.012c-9.402,0.588-14.852,4.881-16.654,13.09l1.389,5.343 C49.403,68.549,54.544,62.357,54.234,55.012z M34.463,56.112l1.154,4.438c2.386-1.041,4.486-2.202,6.298-3.486 c0.101-0.078,0.208-0.149,0.312-0.225c5.363-3.914,8.154-8.95,8.445-15.246C41.334,41.302,36.035,46.064,34.463,56.112z M31.707,39.01c-0.245,0.974-0.554,1.95-0.93,2.923l1.435,5.52c2.35-1.32,4.423-2.676,6.217-4.074 c0.275-0.241,0.564-0.463,0.856-0.681c5.1-4.222,7.741-8.819,7.999-13.902C38.123,30.626,34.67,32.945,31.707,39.01z M29.29,40.191 c2.622-7.853,0.579-15.723-5.266-20.252C21.126,26.74,23.175,34.609,29.29,40.191z M21.558,47.218 c0.465,0.055,0.927,0.128,1.385,0.23c2.226,0.338,4.671,0.507,7.333,0.51l-1.435-5.521c-0.802-0.667-1.547-1.368-2.235-2.099 c-5.54-3.854-9.685-4.199-18.581-1.336C10.695,43.268,15.166,45.995,21.558,47.218z M28.489,49.927 c0.996,0.687,1.974,1.496,2.932,2.435l-0.624-2.399c-0.095,0-0.192,0.002-0.287,0.002C29.822,49.965,29.152,49.95,28.489,49.927z M26.111,61.032c0.122,0.016,0.246,0.025,0.368,0.043c2.21,0.239,4.609,0.23,7.202-0.023l-1.154-4.437 c-6.271-8.011-13.225-9.586-21.229-4.788C14.621,57.188,19.515,60.228,26.111,61.032z M37.034,73.948l-1.389-5.341 c-5.573-6.293-12.427-7.388-20.922-3.323C18.031,71.85,25.531,74.757,37.034,73.948z M40.451,87.089l-1.323-5.09 c-3.313-3.797-6.945-5.878-10.961-6.24c-0.02-0.003-0.04-0.004-0.059-0.007c-3.182-0.274-6.604,0.525-10.299,2.391 C22.138,84.846,29.576,87.77,40.451,87.089z M43.825,100.068l-1.272-4.893c-6.45-7.003-13.347-8.339-21.062-4.052 C25.734,98.495,33.056,101.419,43.825,100.068z M5.266,114.435c4.557-2.138,11.849-4.535,19.827-3.155 c11.561,1.998,17.181,10.45,18.5,12.721h4.588c-2.934-4.415-12.27-17.076-23.466-18.146C16.104,105.024,9.161,110.426,5.266,114.435 z" fill="url(#a)"/></svg>