<?xml version="1.0" encoding="UTF-8" standalone="no"?><svg xmlns="http://www.w3.org/2000/svg" xmlns:xlink="http://www.w3.org/1999/xlink" fill="#000000" height="500" preserveAspectRatio="xMidYMid meet" version="1" viewBox="0.0 0.0 287.8 500.0" width="287.8" zoomAndPan="magnify"><linearGradient gradientUnits="userSpaceOnUse" id="a" x1="139.817" x2="148.004" xlink:actuate="onLoad" xlink:show="other" xlink:type="simple" y1="534.357" y2="-38.755"><stop offset="0" stop-color="#a68300"/><stop offset="0.566" stop-color="#efcb58"/><stop offset="0.978" stop-color="#bff468"/></linearGradient><path d="M143.9,500c-26,0-47-21-47-47V47c0-26,21-47,47-47s47,21,47,47v406C190.9,479,169.8,500,143.9,500z" fill="url(#a)"/><linearGradient gradientUnits="userSpaceOnUse" id="b" x1="331.807" x2="-32.405" xlink:actuate="onLoad" xlink:show="other" xlink:type="simple" y1="69.486" y2="25.893"><stop offset="0" stop-color="#a68300"/><stop offset="0.566" stop-color="#efcb58"/><stop offset="0.978" stop-color="#bff468"/></linearGradient><path d="M240.8,94H47c-26,0-47-21-47-47S21,0,47,0h193.8c26,0,47,21,47,47S266.7,94,240.8,94z" fill="url(#b)"/></svg>