<?xml version="1.0" encoding="UTF-8"?><svg xmlns="http://www.w3.org/2000/svg" xmlns:xlink="http://www.w3.org/1999/xlink" height="274.1" preserveAspectRatio="xMidYMid meet" version="1.0" viewBox="0.0 0.0 421.4 274.1" width="421.4" zoomAndPan="magnify"><defs><clipPath id="a"><path d="M 0 0 L 421.351562 0 L 421.351562 274.148438 L 0 274.148438 Z M 0 0"/></clipPath><clipPath id="b"><path d="M 11 0 L 421.351562 0 L 421.351562 258 L 11 258 Z M 11 0"/></clipPath><clipPath id="c"><path d="M 2.300781 23.742188 C 23.714844 10.625 123.320312 55.230469 123.65625 54.777344 C 131.515625 44.308594 140.445312 34.421875 150.636719 26.179688 C 178.964844 3.277344 220.359375 -4.988281 255.613281 2.914062 C 342.367188 22.363281 391.5625 106 353.964844 186.292969 C 353.964844 186.292969 461.40625 277.738281 404.960938 274.039062 C 373.675781 271.992188 341.597656 261.542969 312.386719 250.863281 C 227.035156 219.664062 147.066406 171.875 78.183594 112.765625 C 65.949219 102.265625 -14.519531 34.046875 2.300781 23.742188 Z M 2.300781 23.742188"/></clipPath><clipPath id="d"><path d="M 122 53 L 373 53 L 373 187 L 122 187 Z M 122 53"/></clipPath><clipPath id="e"><path d="M 2.300781 23.742188 C 23.714844 10.625 123.320312 55.230469 123.65625 54.777344 C 131.515625 44.308594 140.445312 34.421875 150.636719 26.179688 C 178.964844 3.277344 220.359375 -4.988281 255.613281 2.914062 C 342.367188 22.363281 391.5625 106 353.964844 186.292969 C 353.964844 186.292969 461.40625 277.738281 404.960938 274.039062 C 373.675781 271.992188 341.597656 261.542969 312.386719 250.863281 C 227.035156 219.664062 147.066406 171.875 78.183594 112.765625 C 65.949219 102.265625 -14.519531 34.046875 2.300781 23.742188 Z M 2.300781 23.742188"/></clipPath></defs><g><g clip-path="url(#a)" id="change1_1"><path d="M 2.300781 23.742188 C 23.714844 10.625 123.320312 55.230469 123.65625 54.777344 C 131.515625 44.308594 140.445312 34.421875 150.636719 26.179688 C 178.964844 3.277344 220.359375 -4.988281 255.613281 2.914062 C 342.367188 22.363281 391.5625 106 353.964844 186.292969 C 353.964844 186.292969 461.40625 277.738281 404.960938 274.039062 C 373.675781 271.992188 341.597656 261.542969 312.386719 250.863281 C 227.035156 219.664062 147.066406 171.875 78.183594 112.765625 C 65.949219 102.265625 -14.519531 34.046875 2.300781 23.742188" fill="#e08d32" fill-rule="evenodd"/></g><g clip-path="url(#b)"><g clip-path="url(#c)" clip-rule="evenodd"><path d="M 3549.570312 1754.351563 C 3549.023438 1755.328125 3550.3125 1751.5 3551.40625 1751.65625 C 3581.015625 1755.367188 3610.15625 1762.515625 3638.984375 1770.054688 M 3514.453125 1645.054688 C 3512.34375 1644.664063 3545.859375 1646.890625 3567.890625 1652.398438 C 3603.28125 1661.226563 3638.007812 1672.554688 3672.578125 1684.15625 M 3491.992188 1547.242188 C 3499.765625 1550.796875 3555.3125 1542.4375 3569.53125 1544.46875 C 3632.773438 1553.492188 3692.890625 1575.601563 3752.1875 1598.609375 M 3463.632812 1467.710938 C 3455.039062 1467.632813 3484.6875 1453.570313 3487.695312 1453.140625 C 3511.601562 1449.625 3536.796875 1450.679688 3560.742188 1452.945313 C 3621.09375 1458.6875 3679.882812 1473.882813 3737.734375 1491.460938 M 3463.476562 1329.351563 C 3462.03125 1329.117188 3466.367188 1328.804688 3467.8125 1328.6875 C 3494.53125 1326.460938 3522.109375 1328.140625 3548.710938 1330.523438 C 3610.585938 1336.03125 3671.054688 1348.960938 3730.820312 1365.523438 M 3475.507812 1252.75 C 3529.453125 1229.429688 3610.585938 1250.015625 3672.539062 1263.335938 M 3411.5625 1157.789063 C 3425 1123.140625 3664.765625 1168.335938 3693.164062 1175.289063 M 3402.890625 1053.921875 C 3403.320312 1054.078125 3403.085938 1052.945313 3403.554688 1052.4375 C 3436.054688 1020.054688 3611.601562 1050.757813 3648.90625 1058.726563 M 3362.539062 973.6875 C 3379.804688 977.59375 3422.929688 960.132813 3441.953125 958.335938 C 3508.90625 952.085938 3573.242188 960.210938 3638.359375 976.148438 M 3273.828125 2103.335938 C 3272.109375 2115.757813 3296.289062 2092.085938 3308.085938 2087.90625 C 3333.554688 2078.882813 3359.453125 2071.1875 3385.390625 2063.609375 M 3231.289062 2016.695313 C 3221.875 2015.484375 3302.929688 1980.796875 3313.75 1976.929688 C 3369.492188 1957.007813 3427.226562 1935.914063 3486.25 1928.648438 M 3156.640625 1957.90625 C 3160.625 1964.546875 3167.96875 1947.203125 3174.765625 1943.453125 C 3195.507812 1932.085938 3217.382812 1922.75 3239.101562 1913.453125 C 3306.757812 1884.625 3376.953125 1862.046875 3448.671875 1845.875 M 3128.632812 1834.507813 C 3113.476562 1840.601563 3144.53125 1817.945313 3146.328125 1817.046875 C 3174.609375 1802.4375 3204.84375 1791.382813 3235 1781.421875 C 3318.320312 1753.921875 3404.140625 1732.632813 3491.328125 1722.242188 M 3080.820312 1720.015625 C 3074.296875 1719.15625 3091.054688 1711.382813 3097.070312 1708.648438 C 3121.171875 1697.632813 3145.898438 1688.140625 3170.859375 1679.15625 C 3225.703125 1659.390625 3281.796875 1643.414063 3338.242188 1628.882813 M 3002.929688 1635.640625 C 3002.148438 1635.484375 3014.21875 1625.09375 3014.296875 1625.054688 C 3022.1875 1620.09375 3030.507812 1615.601563 3038.867188 1611.460938 C 3060.859375 1600.484375 3083.671875 1591.109375 3106.5625 1582.28125 C 3168.945312 1558.257813 3232.65625 1540.171875 3297.773438 1525.289063 M 2983.320312 1521.5 C 2971.796875 1516.421875 3040.625 1477.632813 3043.789062 1475.953125 C 3057.460938 1468.6875 3069.140625 1463.0625 3083.398438 1456.734375 C 3147.304688 1428.375 3213.671875 1406.539063 3281.328125 1389.234375 M 2956.875 1388.648438 C 2944.375 1382.632813 3004.53125 1357.4375 3079.257812 1335.289063 C 3168.476562 1308.84375 3260.46875 1290.289063 3353.125 1281.617188 M 2855.625 1330.875 C 2855.46875 1332.28125 2857.109375 1328.375 2858.320312 1327.671875 C 2888.046875 1310.523438 2920.117188 1296.65625 2951.796875 1283.609375 C 3018.59375 1256.109375 3087.617188 1234.9375 3157.148438 1215.484375 M 2848.164062 1244.195313 C 2846.523438 1244.78125 2850.507812 1241.539063 2851.992188 1240.601563 C 2861.210938 1234.546875 2870.976562 1229.351563 2880.78125 1224.273438 C 2906.601562 1210.835938 2932.96875 1198.335938 2959.765625 1186.890625 C 3029.570312 1157.164063 3101.523438 1132.867188 3174.882812 1113.726563 M 2867.03125 1136.226563 C 2867.8125 1136.773438 2899.570312 1118.960938 2901.132812 1118.21875 C 2960.859375 1091.03125 3022.539062 1069.078125 3085.46875 1050.640625 M 1464.6875 2033.335938 C 1461.484375 2030.5625 1425.585938 2060.953125 1423.90625 2062.320313 C 1384.296875 2094.78125 1350.351562 2133.570313 1316.953125 2172.125 M 1528.515625 2055.40625 C 1435.78125 2129.46875 1355.664062 2215.25 1282.8125 2309.078125 M 1562.734375 2149.9375 C 1567.890625 2147.867188 1552.226562 2154.078125 1547.8125 2157.476563 C 1529.296875 2171.8125 1513.085938 2189.078125 1497.03125 2206.03125 C 1449.921875 2255.875 1406.640625 2308.921875 1364.0625 2362.59375 M 1605.703125 2209.625 C 1612.382812 2197.398438 1588.90625 2231.851563 1580.039062 2242.59375 C 1565.625 2260.015625 1551.015625 2277.203125 1536.71875 2294.703125 C 1492.226562 2349.117188 1449.101562 2404.664063 1405.703125 2459.898438 M 1671.09375 2266.851563 C 1670.507812 2261.1875 1663.203125 2275.132813 1659.21875 2279.234375 C 1641.757812 2297.085938 1625.625 2316.03125 1609.804688 2335.328125 C 1563.945312 2391.382813 1521.5625 2450.132813 1479.609375 2509.15625 M 1727.96875 2368.101563 C 1730.78125 2374.390625 1712.070312 2390.835938 1709.023438 2394.117188 C 1624.765625 2485.328125 1531.640625 2566.578125 1464.453125 2672.4375 M 1809.804688 2437.789063 C 1811.328125 2428.414063 1793.789062 2448.101563 1786.40625 2454.078125 C 1762.96875 2472.945313 1741.015625 2493.6875 1719.414062 2514.585938 C 1657.65625 2574.351563 1605.039062 2641.1875 1556.5625 2712.046875 M 1840.78125 2560.054688 C 1859.570312 2499.859375 1685.273438 2713.84375 1672.1875 2729.898438 M 1824.492188 1686.1875 C 1823.671875 1681.148438 1816.953125 1693.179688 1812.734375 1696.070313 C 1794.609375 1708.414063 1776.953125 1721.421875 1759.375 1734.585938 C 1718.125 1765.445313 1678.046875 1797.710938 1638.28125 1830.523438 M 1865.507812 1716.148438 C 1866.992188 1718.257813 1815.507812 1759.625 1811.523438 1763.21875 C 1739.492188 1827.984375 1671.757812 1897.398438 1604.804688 1967.320313 M 1943.125 1759 C 1957.8125 1760.25 1920.039062 1777.476563 1909.21875 1787.476563 C 1887.421875 1807.554688 1866.5625 1828.6875 1845.976562 1849.976563 C 1792.109375 1905.640625 1738.59375 1961.734375 1685.742188 2018.375 M 2022.773438 1798.53125 C 2021.992188 1798.257813 2015.976562 1804.46875 2015.429688 1804.898438 C 1924.84375 1881.1875 1846.054688 1972.320313 1764.804688 2058.101563 M 2103.476562 1873.0625 C 2101.953125 1855.40625 2073.828125 1892.710938 2060.390625 1904.273438 C 2034.609375 1926.460938 2010.195312 1950.132813 1985.9375 1973.921875 C 1921.875 2036.617188 1859.609375 2101.1875 1798.203125 2166.5 M 2193.164062 1941.578125 C 2194.609375 1939.625 2174.335938 1951.34375 2172.421875 1952.671875 C 2130.742188 1981.304688 2093.945312 2017.242188 2058.28125 2052.789063 C 1983.359375 2127.4375 1912.65625 2205.757813 1845.039062 2287.046875 M 2266.289062 2005.914063 C 2267.382812 1994.15625 2245.507812 2017.28125 2235.703125 2023.882813 C 2199.726562 2048.0625 2167.1875 2077.203125 2135.859375 2107.007813 C 2060.078125 2179.078125 1989.335938 2256.03125 1922.65625 2336.460938 M 2329.335938 2077.125 C 2328.125 2094.039063 2300.117188 2094.585938 2286.953125 2105.25 C 2165.390625 2204.039063 2059.804688 2324.820313 1957.265625 2442.515625 M 2401.289062 2159.273438 C 2313.242188 2146.382813 1939.492188 2577.046875 1882.109375 2655.914063 M 2376.523438 2227.710938 C 2353.203125 2218.765625 2057.578125 2558.765625 2007.617188 2623.140625 M 2419.804688 2291.421875 C 2432.734375 2295.5625 2399.6875 2309.664063 2389.609375 2318.765625 C 2352.617188 2352.125 2317.96875 2388.140625 2284.257812 2424.742188 C 2205.195312 2510.5625 2130.390625 2600.601563 2059.414062 2693.140625 M 2480.820312 2331.890625 C 2479.0625 2337.085938 2144.21875 2705.132813 2111.953125 2746.695313 M 2557.148438 2370.953125 C 2552.578125 2393.492188 2466.054688 2449.234375 2450.3125 2464.820313 C 2363.554688 2550.484375 2282.578125 2641.96875 2204.726562 2735.71875 M 2583.046875 2426.65625 C 2536.992188 2424.429688 2257.148438 2780.132813 2224.453125 2823.53125 M 2674.960938 2459.429688 C 2550.078125 2501.421875 2437.96875 2669.898438 2358.710938 2764.273438 M 2671.914062 2522.671875 C 2676.40625 2515.5625 2659.414062 2533.960938 2653.476562 2539.898438 C 2633.4375 2559.976563 2615.039062 2581.695313 2597.226562 2603.765625 C 2551.875 2660.054688 2510.546875 2719.390625 2470.703125 2779.703125 M 2751.640625 2557.125 C 2732.8125 2545.875 2601.328125 2705.640625 2582.695312 2729.351563 M 2534.21875 1226.96875 C 2413.867188 1233.0625 2210.976562 1407.945313 2118.671875 1478.335938 M 2583.710938 1246.34375 C 2552.617188 1268.921875 2481.835938 1284.78125 2443.75 1306.460938 C 2323.046875 1375.054688 2210.46875 1457.59375 2099.21875 1540.328125 M 2658.867188 1277.359375 C 2658.867188 1277.476563 2658.867188 1277.59375 2658.828125 1277.710938 C 2658.671875 1279.195313 2601.328125 1293.335938 2598.515625 1294.273438 C 2438.515625 1349.742188 2297.03125 1455.71875 2162.773438 1555.992188 M 2726.25 1295.367188 C 2726.601562 1296.460938 2690.3125 1309.625 2689.375 1309.976563 C 2643.515625 1328.335938 2598.671875 1349.273438 2554.6875 1371.773438 C 2444.21875 1428.296875 2338.398438 1493.765625 2233.867188 1560.484375 M 2718.164062 1394.429688 C 2718.476562 1392.75 2681.054688 1404.9375 2675.46875 1407.007813 C 2634.648438 1421.851563 2594.882812 1440.523438 2556.328125 1460.484375 C 2442.8125 1519.273438 2337.1875 1591.96875 2234.726562 1668.101563 M 2803.125 1423.296875 C 2672.5 1422.125 2365.742188 1652.085938 2264.921875 1726.734375 M 2792.382812 1491.617188 C 2791.328125 1488.53125 2725.429688 1519.585938 2720.351562 1522.125 C 2572.734375 1595.054688 2438.632812 1692.476563 2309.492188 1793.84375 M 2793.515625 1584.859375 C 2802.382812 1583.414063 2785.9375 1584.78125 2742.773438 1603.257813 C 2712.734375 1616.148438 2683.28125 1630.484375 2654.375 1645.640625 C 2569.960938 1689.9375 2489.179688 1740.875 2409.53125 1793.140625 M 2857.851562 1609.585938 C 2857.96875 1608.257813 2852.695312 1611.34375 2852.578125 1611.421875 C 2804.335938 1630.445313 2758.28125 1653.921875 2713.242188 1679.625 C 2612.8125 1737.007813 2517.265625 1803.179688 2423.515625 1870.757813 M 2882.265625 1715.875 C 2890.078125 1714.078125 2850.625 1727.398438 2844.570312 1730.484375 C 2817.1875 1744.46875 2790.117188 1759.078125 2763.710938 1774.820313 C 2681.914062 1823.6875 2603.476562 1877.710938 2525.703125 1932.632813 M 2936.015625 1801.304688 C 2932.617188 1813.179688 2910.703125 1799.742188 2898.984375 1803.726563 C 2752.460938 1853.6875 2621.015625 1955.757813 2503.007812 2052.515625 M 2995.859375 1863.765625 C 3006.523438 1853.648438 2968.085938 1873.765625 2954.84375 1880.210938 C 2918.203125 1898.179688 2883.046875 1918.765625 2848.554688 1940.5625 C 2766.679688 1992.203125 2688.4375 2049.234375 2612.109375 2108.6875 M 3014.609375 2004.859375 C 2997.148438 2020.71875 2773.007812 2125.484375 2710.742188 2165.71875 M 3035.15625 2084.117188 C 3037.03125 2084 2981.132812 2099.234375 2960.625 2110.679688 C 2902.34375 2143.21875 2847.03125 2180.757813 2791.71875 2217.984375 M 3182.65625 2134.625 C 3176.289062 2145.289063 3093.554688 2162.59375 3080.976562 2168.023438 C 2983.242188 2210.210938 2894.335938 2269.15625 2808.59375 2331.617188 M 3128.476562 2268.804688 C 3128.203125 2271.304688 2982.226562 2323.453125 2796.796875 2452.945313 M 3190.625 2335.992188 C 3200.195312 2334.46875 3172.1875 2329.78125 3169.414062 2330.09375 C 3149.804688 2332.164063 3131.09375 2338.414063 3113.085938 2346.109375 C 3056.367188 2370.289063 3003.4375 2403.335938 2950.898438 2435.289063 M 1142.421875 2137.242188 C 1130.9375 2140.40625 1090.78125 2247.59375 1080.898438 2271.382813 M 299.648438 2203.570313 C 311.328125 2206.265625 288.789062 2225.015625 282.304688 2235.09375 C 266.171875 2260.171875 250.664062 2285.679688 235.976562 2311.617188 C 193.515625 2386.578125 157.734375 2464.742188 124.140625 2544 M 436.875 2140.523438 C 379.101562 2162.046875 226.367188 2491.578125 194.648438 2551.148438 M 546.679688 2105.210938 C 552.65625 2095.679688 535.898438 2125.054688 529.570312 2134.390625 C 506.289062 2168.804688 484.648438 2204.15625 463.789062 2240.09375 C 405.585938 2340.5625 349.804688 2442.632813 294.179688 2544.546875 M 646.445312 2090.914063 C 644.6875 2078.804688 631.71875 2110.484375 624.648438 2120.484375 C 602.226562 2152.203125 582.1875 2185.640625 562.8125 2219.234375 C 507.695312 2314.78125 458.085938 2413.453125 409.179688 2512.28125 M 745.390625 2084.976563 C 728.789062 2078.179688 726.601562 2115.601563 716.757812 2130.640625 C 625.546875 2270.289063 553.789062 2425.875 483.203125 2576.617188 M 860.585938 2058.179688 C 861.171875 2054.664063 859.921875 2065.484375 858.125 2068.53125 C 831.40625 2113.6875 801.914062 2156.851563 776.367188 2202.867188 C 727.65625 2290.640625 680.3125 2379.195313 633.007812 2467.75 M 966.367188 2064.15625 C 978.789062 2076.734375 940.507812 2088.453125 929.960938 2102.59375 C 862.226562 2193.414063 810.859375 2297.476563 757.226562 2396.890625 M 1013.554688 2113.84375 C 1020.039062 2109.390625 1007.851562 2121.265625 1007.070312 2122.242188 C 946.484375 2199.742188 904.726562 2291.382813 860.351562 2378.570313 M 1099.0625 2122.320313 C 1055.9375 2127.125 940.703125 2351.578125 921.601562 2388.179688 M 4312.070312 195.992188 C 4311.796875 219.3125 4267.539062 179.9375 4244.21875 178.648438 C 4178.671875 174.976563 4112.734375 178.960938 4047.304688 183.023438 M 4277.539062 268.570313 C 4277.617188 269.390625 4277.460938 266.382813 4275.546875 264.546875 C 4254.609375 244.585938 4212.148438 243.453125 4185.820312 240.757813 C 4103.828125 232.320313 4020.898438 232.359375 3938.789062 238.023438 M 4255.117188 331.304688 C 4154.140625 303.726563 4052.617188 291.03125 3940.078125 295.992188 M 4165.703125 420.445313 C 4170.820312 392.28125 3961.328125 384.390625 3905.742188 383.84375 M 4105.585938 487.984375 C 4114.726562 492.203125 4086.875 468.023438 4082.03125 465.914063 C 4011.328125 434.9375 3925.859375 432.867188 3850.273438 435.289063 M 4066.992188 556.148438 C 4069.53125 549.742188 4047.070312 544.820313 4044.0625 543.921875 C 3953.28125 517.671875 3855.3125 513.0625 3761.484375 515.210938 M 3973.671875 650.992188 C 3977.539062 649.507813 3915.546875 623.921875 3911.054688 622.710938 C 3830.195312 600.796875 3745.78125 592.203125 3662.304688 590.953125 M 3826.171875 727.554688 C 3752.695312 684.585938 3651.054688 675.796875 3560.039062 674.273438 M 3741.953125 776.773438 C 3750.039062 782.4375 3724.140625 768.296875 3714.726562 765.484375 C 3695.546875 759.78125 3675.664062 755.835938 3655.898438 752.828125 C 3607.1875 745.367188 3558.164062 744.15625 3508.984375 744.898438 M 3600.078125 863.335938 C 3581.015625 855.992188 3524.492188 823.609375 3478.085938 818.257813 M 3512.1875 241.148438 C 3506.640625 260.757813 3470.976562 237.4375 3450.9375 241.421875 C 3276.835938 275.953125 3105.976562 336.421875 2939.570312 396.8125 M 3525.46875 283.21875 C 3532.304688 283.0625 3511.757812 283.414063 3505.039062 284.78125 C 3439.0625 298.140625 3373.789062 318.84375 3309.570312 338.765625 C 3167.617188 382.789063 3028.125 434.3125 2890 489.15625 M 3534.570312 365.40625 C 3478.75 351.460938 2977.96875 545.289063 2908.046875 573.53125 M 3503.945312 429.625 C 3503.242188 427.554688 3459.53125 442.789063 3457.34375 443.492188 C 3236.40625 514.46875 3018.945312 593.335938 2804.492188 682.125 M 3387.929688 607.554688 C 3393.90625 595.367188 3360.898438 610.484375 3347.578125 613.257813 C 3293.007812 624.703125 3239.023438 639.234375 3185.585938 655.054688 C 3076.40625 687.359375 2969.414062 725.484375 2863.164062 766.382813 M 3257.890625 714.625 C 3257.226562 721.148438 3224.414062 728.0625 3220.585938 729.273438 C 3082.539062 773.609375 2945.46875 818.335938 2809.609375 869.390625 M 3219.84375 813.960938 C 3085.078125 879.742188 2931.289062 914.546875 2790.546875 965.835938 M 2488.867188 603.921875 C 2489.609375 603.804688 2439.179688 620.523438 2389.921875 643.804688 C 2276.914062 697.164063 2166.445312 755.796875 2055.9375 814.117188 M 2547.929688 612.242188 C 2549.296875 636.070313 2503.59375 630.210938 2482.34375 641.070313 C 2295.78125 736.03125 2114.570312 841.148438 1932.617188 944.46875 M 2493.046875 732.828125 C 2317.890625 779.898438 2137.421875 921.617188 1983.125 1011.539063 M 2534.765625 750.328125 C 2537.382812 750.601563 2526.484375 755.484375 2526.289062 755.601563 C 2473.4375 784.390625 2421.484375 815.015625 2369.804688 845.796875 C 2242.65625 921.539063 2118.828125 1002.320313 1996.25 1085.171875 M 2453.515625 890.171875 C 2454.804688 892.046875 2324.960938 963.84375 2243.046875 1012.28125 C 2109.257812 1091.421875 1981.171875 1179 1856.523438 1271.773438 M 2426.914062 948.804688 C 2435.78125 947.125 2411.640625 958.492188 2403.984375 963.296875 C 2389.21875 972.476563 2374.453125 981.65625 2359.84375 991.109375 C 2323.046875 1014.976563 2286.601562 1039.3125 2250.546875 1064.273438 C 2131.71875 1146.539063 2016.796875 1234.195313 1903.007812 1323.257813 M 2281.328125 1146.65625 C 2164.335938 1253.296875 2003.90625 1330.953125 1876.757812 1426.96875 M 1429.0625 1188.140625 C 1387.421875 1234.625 1306.5625 1268.570313 1257.304688 1307.945313 C 1131.25 1408.6875 1011.796875 1517.59375 892.96875 1626.65625 M 1507.929688 1191.96875 C 1516.640625 1185.757813 1491.015625 1205.210938 1481.953125 1210.953125 C 1459.609375 1225.171875 1437.34375 1239.46875 1415.664062 1254.703125 C 1360.429688 1293.453125 1307.773438 1335.71875 1256.953125 1380.054688 C 1113.320312 1505.25 979.960938 1642.320313 852.34375 1783.648438 M 1491.054688 1293.296875 C 1491.054688 1293.257813 1489.140625 1295.171875 1487.851562 1295.953125 C 1428.4375 1333.257813 1372.890625 1375.328125 1318.75 1419.976563 C 1193.085938 1523.648438 1075.625 1636.96875 958.085938 1749.585938 M 1414.023438 1396.539063 C 1418.90625 1391.695313 1404.765625 1406.65625 1399.6875 1411.265625 C 1264.257812 1534.390625 1134.960938 1662.632813 1008.59375 1795.171875 M 1420.039062 1461.148438 C 1294.804688 1532.75 1186.679688 1703.609375 1093.007812 1808.257813 M 1538.007812 1469.078125 C 1550.15625 1454.3125 1506.40625 1490.835938 1492.03125 1503.453125 C 1361.445312 1618.21875 1248.945312 1757.554688 1133.75 1887.203125 M 1470.351562 1636.695313 C 1475.039062 1636.460938 1463.789062 1643.335938 1460.3125 1646.5 C 1381.171875 1718.023438 1308.554688 1796.578125 1238.203125 1876.65625 M 1456.757812 1741.65625 C 1373.046875 1784 1295.898438 1908.726563 1229.453125 1982.59375" fill="none" stroke="#b72e22" stroke-linecap="round" stroke-linejoin="round" stroke-miterlimit="10" stroke-width="12.2" transform="matrix(.1 0 0 -.1 0 274.15)"/></g></g><g clip-path="url(#d)"><g clip-path="url(#e)" clip-rule="evenodd"><path d="M 3710.976562 902.164063 C 3073.789062 813.375 2370.507812 1165.25 1878.632812 1529.625 C 1752.265625 1623.257813 1630.46875 1724.117188 1520.195312 1836.421875 C 1453.046875 1904.78125 1387.34375 1974.976563 1328.554688 2050.796875 C 1321.71875 2059.625 1220.429688 2188.882813 1238.671875 2194.664063" fill="none" stroke="#b72e22" stroke-linecap="round" stroke-linejoin="round" stroke-miterlimit="10" stroke-width="27.44" transform="matrix(.1 0 0 -.1 0 274.15)"/></g></g></g></svg>