<?xml version="1.0" encoding="UTF-8"?><svg xmlns="http://www.w3.org/2000/svg" xmlns:xlink="http://www.w3.org/1999/xlink" height="437.9" preserveAspectRatio="xMidYMid meet" version="1.0" viewBox="160.9 31.1 178.2 437.9" width="178.2" zoomAndPan="magnify"><g><g id="change1_1"><path d="M 230.242188 246.066406 C 225.488281 248.648438 217.296875 250.625 215.191406 256.644531 C 211.984375 265.832031 211.949219 275.132812 215.113281 277.417969 C 218.28125 279.703125 223.453125 274.109375 226.660156 264.925781 C 228.46875 259.753906 230.449219 252.878906 231.832031 247.855469 C 232.695312 244.730469 244.367188 220.507812 249.003906 210.941406 C 244.300781 220.582031 232.25 244.980469 230.242188 246.066406" fill="#ff8b00"/></g><g id="change1_2"><path d="M 249.003906 210.941406 C 250.167969 208.554688 250.890625 207.058594 250.890625 207.058594 C 250.890625 207.058594 250.160156 208.550781 249.003906 210.941406" fill="#ff8b00"/></g><g id="change2_1"><path d="M 216.394531 258.367188 C 214.171875 263.058594 213.558594 268.023438 215.023438 269.457031 C 216.492188 270.894531 219.484375 268.257812 221.707031 263.570312 C 223.929688 258.882812 224.542969 253.914062 223.078125 252.480469 C 221.609375 251.046875 218.617188 253.683594 216.394531 258.367188" fill="#ffb900"/></g><g id="change1_3"><path d="M 230.660156 215.40625 C 225.902344 217.984375 217.710938 219.960938 215.605469 225.980469 C 212.398438 235.167969 212.363281 244.46875 215.527344 246.757812 C 218.695312 249.042969 223.867188 243.445312 227.074219 234.261719 C 228.882812 229.09375 230.863281 222.214844 232.246094 217.191406 C 233.109375 214.066406 244.777344 189.855469 249.414062 180.285156 C 244.707031 189.929688 232.664062 214.316406 230.660156 215.40625" fill="#ff8b00"/></g><g id="change1_4"><path d="M 249.414062 180.285156 C 250.578125 177.894531 251.304688 176.394531 251.304688 176.394531 C 251.304688 176.394531 250.574219 177.890625 249.414062 180.285156" fill="#ff8b00"/></g><g id="change2_2"><path d="M 216.808594 227.707031 C 214.585938 232.394531 213.972656 237.359375 215.4375 238.796875 C 216.90625 240.230469 219.898438 237.59375 222.121094 232.90625 C 224.347656 228.21875 224.957031 223.253906 223.492188 221.816406 C 222.023438 220.382812 219.03125 223.019531 216.808594 227.707031" fill="#ffb900"/></g><g id="change1_5"><path d="M 231.074219 184.742188 C 226.316406 187.320312 218.125 189.300781 216.019531 195.320312 C 212.8125 204.507812 212.777344 213.808594 215.941406 216.09375 C 219.109375 218.378906 224.28125 212.785156 227.488281 203.597656 C 229.296875 198.429688 231.277344 191.554688 232.660156 186.527344 C 233.523438 183.402344 245.195312 159.183594 249.832031 149.613281 C 245.128906 159.257812 233.078125 183.65625 231.074219 184.742188" fill="#ff8b00"/></g><g id="change1_6"><path d="M 249.832031 149.613281 C 250.996094 147.230469 251.71875 145.730469 251.71875 145.730469 C 251.71875 145.730469 250.988281 147.222656 249.832031 149.613281" fill="#ff8b00"/></g><g id="change2_3"><path d="M 217.222656 197.042969 C 215 201.730469 214.386719 206.695312 215.851562 208.132812 C 217.320312 209.566406 220.3125 206.933594 222.535156 202.242188 C 224.761719 197.554688 225.371094 192.589844 223.90625 191.15625 C 222.4375 189.71875 219.445312 192.355469 217.222656 197.042969" fill="#ffb900"/></g><g id="change1_7"><path d="M 250.246094 118.949219 C 251.410156 116.566406 252.132812 115.070312 252.132812 115.070312 C 252.132812 115.070312 251.40625 116.5625 250.246094 118.949219" fill="#ff8b00"/></g><g id="change1_8"><path d="M 231.488281 154.078125 C 226.730469 156.660156 218.539062 158.636719 216.433594 164.65625 C 213.226562 173.84375 213.191406 183.144531 216.355469 185.429688 C 219.523438 187.714844 224.695312 182.121094 227.902344 172.9375 C 229.710938 167.765625 231.691406 160.890625 233.074219 155.863281 C 233.9375 152.738281 245.609375 128.519531 250.246094 118.949219 C 245.542969 128.59375 233.492188 152.992188 231.488281 154.078125" fill="#ff8b00"/></g><g id="change2_4"><path d="M 217.636719 166.382812 C 215.414062 171.070312 214.800781 176.035156 216.265625 177.46875 C 217.734375 178.90625 220.726562 176.269531 222.949219 171.578125 C 225.175781 166.894531 225.785156 161.929688 224.320312 160.492188 C 222.851562 159.058594 219.859375 161.691406 217.636719 166.382812" fill="#ffb900"/></g><g id="change1_9"><path d="M 250.65625 88.296875 C 251.824219 85.90625 252.546875 84.40625 252.546875 84.40625 C 252.546875 84.40625 251.816406 85.898438 250.65625 88.296875" fill="#ff8b00"/></g><g id="change1_10"><path d="M 231.902344 123.417969 C 227.144531 125.996094 218.953125 127.972656 216.847656 133.992188 C 213.640625 143.179688 213.605469 152.480469 216.769531 154.769531 C 219.9375 157.054688 225.109375 151.460938 228.316406 142.273438 C 230.125 137.105469 232.105469 130.226562 233.488281 125.203125 C 234.351562 122.078125 246.019531 97.867188 250.65625 88.296875 C 245.949219 97.941406 233.90625 122.328125 231.902344 123.417969" fill="#ff8b00"/></g><g id="change2_5"><path d="M 218.050781 135.71875 C 215.828125 140.40625 215.214844 145.371094 216.679688 146.808594 C 218.148438 148.242188 221.140625 145.605469 223.363281 140.917969 C 225.589844 136.230469 226.199219 131.265625 224.734375 129.828125 C 223.265625 128.394531 220.273438 131.03125 218.050781 135.71875" fill="#ffb900"/></g><g id="change1_11"><path d="M 232.316406 92.753906 C 227.558594 95.335938 219.367188 97.3125 217.261719 103.332031 C 214.054688 112.519531 214.019531 121.816406 217.1875 124.105469 C 220.351562 126.390625 225.523438 120.796875 228.730469 111.609375 C 230.539062 106.441406 232.519531 99.5625 233.902344 94.539062 C 234.765625 91.414062 246.433594 67.203125 251.070312 57.632812 C 246.363281 67.277344 234.320312 91.667969 232.316406 92.753906" fill="#ff8b00"/></g><g id="change1_12"><path d="M 251.070312 57.632812 C 252.238281 55.242188 252.960938 53.742188 252.960938 53.742188 C 252.960938 53.742188 252.230469 55.238281 251.070312 57.632812" fill="#ff8b00"/></g><g id="change2_6"><path d="M 218.464844 105.054688 C 216.242188 109.742188 215.628906 114.707031 217.097656 116.144531 C 218.5625 117.578125 221.554688 114.941406 223.777344 110.253906 C 226.003906 105.566406 226.613281 100.601562 225.148438 99.167969 C 223.679688 97.730469 220.6875 100.367188 218.464844 105.054688" fill="#ffb900"/></g><g id="change1_13"><path d="M 214.828125 68.550781 C 214.253906 64.429688 214.464844 32.917969 214.464844 32.917969 C 214.464844 32.917969 212.589844 64.628906 212.328125 69.316406 C 211.914062 76.597656 210.078125 72.804688 208.28125 85.023438 C 206.804688 95.085938 210.726562 103.777344 214.246094 103.226562 C 217.765625 102.675781 219.980469 93.941406 219.191406 83.714844 C 218.746094 77.964844 215.570312 73.855469 214.828125 68.550781" fill="#ff8b00"/></g><g id="change3_1"><path d="M 213.757812 75.863281 C 211.984375 75.804688 210.476562 80.355469 210.386719 86.027344 C 210.300781 91.703125 211.664062 96.351562 213.441406 96.414062 C 215.214844 96.472656 216.722656 91.925781 216.8125 86.25 C 216.898438 80.574219 215.53125 75.925781 213.757812 75.863281" fill="#ffba00"/></g><g id="change1_14"><path d="M 176.398438 209.925781 C 175.292969 207.488281 174.597656 205.96875 174.597656 205.96875 C 174.597656 205.96875 175.285156 207.492188 176.398438 209.925781" fill="#ff8b00"/></g><g id="change1_15"><path d="M 194.421875 245.949219 C 192.4375 244.765625 180.894531 219.78125 176.398438 209.925781 C 180.828125 219.703125 191.996094 244.488281 192.796875 247.65625 C 194.074219 252.746094 195.910156 259.714844 197.609375 264.96875 C 200.625 274.304688 205.675781 280.144531 208.890625 278.011719 C 212.101562 275.878906 212.261719 266.578125 209.242188 257.242188 C 207.265625 251.125 199.121094 248.753906 194.421875 245.949219" fill="#ff8b00"/></g><g id="change3_2"><path d="M 201.449219 252.703125 C 199.953125 254.066406 200.464844 259.058594 202.589844 263.851562 C 204.714844 268.644531 207.648438 271.421875 209.144531 270.058594 C 210.640625 268.691406 210.132812 263.699219 208.007812 258.910156 C 205.882812 254.117188 202.945312 251.335938 201.449219 252.703125" fill="#ffba00"/></g><g id="change1_16"><path d="M 176.621094 179.261719 C 175.515625 176.820312 174.820312 175.300781 174.820312 175.300781 C 174.820312 175.300781 175.511719 176.824219 176.621094 179.261719" fill="#ff8b00"/></g><g id="change1_17"><path d="M 194.644531 215.28125 C 192.660156 214.097656 181.117188 189.117188 176.621094 179.261719 C 181.054688 189.039062 192.222656 213.824219 193.019531 216.988281 C 194.300781 222.078125 196.136719 229.046875 197.832031 234.300781 C 200.851562 243.636719 205.902344 249.476562 209.113281 247.34375 C 212.328125 245.210938 212.484375 235.910156 209.46875 226.574219 C 207.492188 220.457031 199.347656 218.089844 194.644531 215.28125" fill="#ff8b00"/></g><g id="change3_3"><path d="M 201.675781 222.035156 C 200.179688 223.398438 200.6875 228.390625 202.8125 233.183594 C 204.9375 237.976562 207.871094 240.753906 209.371094 239.390625 C 210.867188 238.023438 210.355469 233.035156 208.230469 228.242188 C 206.105469 223.449219 203.171875 220.671875 201.675781 222.035156" fill="#ffba00"/></g><g id="change1_18"><path d="M 176.847656 148.597656 C 175.738281 146.152344 175.046875 144.632812 175.046875 144.632812 C 175.046875 144.632812 175.734375 146.160156 176.847656 148.597656" fill="#ff8b00"/></g><g id="change1_19"><path d="M 194.867188 184.613281 C 192.886719 183.429688 181.347656 158.453125 176.847656 148.597656 C 181.277344 158.375 192.445312 183.15625 193.242188 186.320312 C 194.523438 191.410156 196.359375 198.378906 198.058594 203.632812 C 201.074219 212.96875 206.125 218.808594 209.339844 216.675781 C 212.550781 214.542969 212.710938 205.246094 209.691406 195.90625 C 207.714844 189.789062 199.570312 187.421875 194.867188 184.613281" fill="#ff8b00"/></g><g id="change3_4"><path d="M 201.898438 191.367188 C 200.402344 192.730469 200.910156 197.722656 203.035156 202.515625 C 205.160156 207.308594 208.097656 210.089844 209.59375 208.722656 C 211.089844 207.359375 210.582031 202.367188 208.457031 197.574219 C 206.332031 192.78125 203.394531 190.003906 201.898438 191.367188" fill="#ffba00"/></g><g id="change1_20"><path d="M 177.070312 117.929688 C 175.964844 115.484375 175.269531 113.964844 175.269531 113.964844 C 175.269531 113.964844 175.960938 115.492188 177.070312 117.929688" fill="#ff8b00"/></g><g id="change1_21"><path d="M 195.09375 153.945312 C 193.109375 152.761719 181.570312 127.785156 177.070312 117.929688 C 181.503906 127.710938 192.671875 152.488281 193.46875 155.652344 C 194.746094 160.742188 196.582031 167.710938 198.28125 172.964844 C 201.296875 182.300781 206.347656 188.140625 209.5625 186.007812 C 212.773438 183.875 212.933594 174.578125 209.917969 165.242188 C 207.9375 159.121094 199.792969 156.753906 195.09375 153.945312" fill="#ff8b00"/></g><g id="change3_5"><path d="M 202.121094 160.699219 C 200.625 162.0625 201.136719 167.054688 203.261719 171.847656 C 205.386719 176.640625 208.320312 179.421875 209.816406 178.054688 C 211.3125 176.691406 210.804688 171.699219 208.679688 166.90625 C 206.554688 162.113281 203.617188 159.335938 202.121094 160.699219" fill="#ffba00"/></g><g id="change1_22"><path d="M 177.296875 87.261719 C 176.1875 84.820312 175.496094 83.296875 175.496094 83.296875 C 175.496094 83.296875 176.183594 84.824219 177.296875 87.261719" fill="#ff8b00"/></g><g id="change1_23"><path d="M 195.316406 123.277344 C 193.335938 122.097656 181.792969 97.117188 177.296875 87.261719 C 181.726562 97.042969 192.894531 121.820312 193.691406 124.988281 C 194.972656 130.074219 196.808594 137.042969 198.503906 142.296875 C 201.523438 151.632812 206.574219 157.472656 209.785156 155.339844 C 213 153.207031 213.15625 143.910156 210.140625 134.574219 C 208.164062 128.453125 200.019531 126.085938 195.316406 123.277344" fill="#ff8b00"/></g><g id="change3_6"><path d="M 202.347656 130.03125 C 200.851562 131.398438 201.359375 136.390625 203.484375 141.179688 C 205.609375 145.972656 208.546875 148.753906 210.042969 147.386719 C 211.539062 146.023438 211.027344 141.03125 208.902344 136.238281 C 206.777344 131.445312 203.84375 128.667969 202.347656 130.03125" fill="#ffba00"/></g><g id="change1_24"><path d="M 195.539062 92.609375 C 193.398438 91.332031 183.230469 62.261719 180.554688 54.515625 C 183.195312 62.1875 193.054688 90.894531 193.914062 94.320312 C 195.195312 99.410156 197.03125 106.378906 198.730469 111.628906 C 201.746094 120.964844 206.796875 126.804688 210.011719 124.671875 C 213.222656 122.539062 213.382812 113.242188 210.363281 103.90625 C 208.386719 97.785156 200.242188 95.417969 195.539062 92.609375" fill="#ff8b00"/></g><g id="change1_25"><path d="M 180.554688 54.515625 C 180.140625 53.320312 179.898438 52.621094 179.898438 52.621094 C 179.898438 52.621094 180.140625 53.320312 180.554688 54.515625" fill="#ff8b00"/></g><g id="change3_7"><path d="M 202.570312 99.363281 C 201.074219 100.730469 201.585938 105.722656 203.710938 110.515625 C 205.835938 115.308594 208.769531 118.085938 210.265625 116.722656 C 211.761719 115.355469 211.253906 110.363281 209.128906 105.570312 C 207.003906 100.777344 204.066406 98 202.570312 99.363281" fill="#ffba00"/></g><g id="change4_1"><path d="M 212.808594 284.226562 C 210.558594 284.230469 208.625 282.425781 208.628906 283.40625 C 208.632812 284.257812 210.019531 285.742188 211.863281 286.105469 C 211.527344 288.332031 211.644531 292.632812 211.660156 297.8125 C 211.660156 297.8125 211.542969 317.878906 211.390625 343.679688 C 211.378906 346.257812 211.363281 348.894531 211.347656 351.574219 C 211.320312 355.347656 211.3125 359.480469 211.296875 363.71875 C 211.285156 365.835938 211.277344 367.980469 211.265625 370.117188 C 211.367188 391.117188 212.421875 413.113281 210.886719 433.636719 C 210.851562 436.886719 210.832031 439.855469 210.816406 442.484375 C 210.769531 450.359375 210.742188 455.128906 210.742188 455.128906 C 210.761719 462.753906 211.839844 468.929688 213.152344 468.925781 C 214.460938 468.921875 215.511719 462.742188 215.492188 455.117188 C 215.492188 455.117188 215.449219 451.945312 215.382812 446.503906 C 215.433594 418.105469 215.363281 389.105469 214.28125 360.800781 C 214.246094 358.078125 214.210938 355.386719 214.179688 352.734375 C 213.804688 323.589844 213.496094 299.582031 213.496094 299.582031 C 213.484375 294.136719 213.753906 288.75 213.429688 286.121094 C 215.332031 285.789062 216.773438 284.257812 216.769531 283.386719 C 216.769531 282.40625 215.054688 284.222656 212.808594 284.226562" fill="#ff8c00"/></g><g id="change5_1"><path d="M 210.953125 387.253906 C 212.90625 372.351562 209.101562 358.878906 205.15625 344.957031 C 204.988281 343.757812 204.828125 342.550781 204.664062 341.34375 C 204.488281 340.050781 204.316406 338.757812 204.144531 337.457031 C 204.285156 322.925781 204.664062 308.757812 198.480469 294.882812 C 198.226562 293.652344 198.046875 292.425781 197.878906 291.210938 C 193.765625 260.789062 160.886719 248.339844 160.886719 248.339844 C 160.886719 248.339844 191.238281 261.148438 192.097656 289.917969 C 192.140625 291.167969 192.175781 292.429688 192.214844 293.691406 C 195.570312 309.300781 193.933594 323.984375 193.570312 339.257812 C 193.609375 340.445312 193.644531 341.617188 193.675781 342.777344 C 193.460938 351.855469 196.800781 360.054688 196.96875 369.324219 C 197.03125 373.738281 195.109375 377.832031 195.785156 381.769531 C 195.980469 383.96875 197.835938 386.507812 199.121094 388.625 C 199.523438 389.324219 199.953125 390.058594 200.398438 390.8125 C 206.242188 400.644531 214.585938 414.6875 214.585938 414.6875 C 214.585938 414.6875 213.414062 406.027344 211.589844 392.53125 C 211.359375 390.84375 211.125 389.082031 210.953125 387.253906" fill="#ff9100"/></g><g id="change6_1"><path d="M 209.292969 391.875 C 207.5 385.046875 210.125 377.820312 209.828125 370.765625 C 209.492188 363.273438 205.984375 356.855469 204.0625 349.894531 C 203.582031 348.15625 202.777344 346.4375 202.835938 344.589844 C 202.667969 343.421875 202.507812 342.25 202.347656 341.082031 C 202.179688 339.871094 202.015625 338.660156 201.851562 337.453125 C 200.804688 331.527344 201.921875 325.71875 202.351562 319.503906 C 202.832031 310.195312 197.261719 302.570312 195.914062 293.808594 C 195.675781 292.300781 196.382812 290.714844 196.207031 289.449219 C 195.515625 284.394531 187.042969 269.9375 187.042969 269.9375 C 187.042969 269.9375 194.277344 283.929688 194.386719 287.894531 C 194.421875 289.214844 193.789062 290.84375 193.835938 292.503906 C 197.375 307.953125 197.675781 321.992188 195.765625 337.304688 C 195.796875 338.597656 195.832031 339.886719 195.863281 341.167969 C 195.539062 349.519531 198.191406 357.316406 199.902344 365.613281 C 201.175781 372.609375 197.785156 378.558594 197.25 385.242188 C 197.25 385.242188 198.066406 386.652344 199.355469 388.773438 C 200.011719 389.835938 200.800781 391.070312 201.640625 392.394531 C 205.855469 399.019531 211.476562 407.847656 211.476562 407.847656 C 211.476562 407.847656 210.882812 403.507812 209.914062 396.433594 C 209.722656 395.019531 209.515625 393.496094 209.292969 391.875" fill="#ffbc00"/></g><g id="change7_1"><path d="M 207.90625 389.613281 C 208.152344 373.960938 207.335938 359.796875 199.542969 347.597656 C 198.972656 345.730469 198.085938 343.898438 197.679688 342.390625 C 196.472656 337.863281 199.574219 324.242188 199.574219 324.242188 C 199.574219 324.242188 193.511719 337.277344 193.601562 340.222656 C 193.644531 341.695312 193.699219 343.441406 193.757812 345.375 C 193.398438 347.4375 193.59375 349.636719 194.113281 351.816406 C 196.671875 362.269531 197.488281 371.503906 195.269531 381.460938 C 195.269531 381.460938 195.96875 382.785156 197.078125 384.90625 C 197.636719 385.96875 198.320312 387.230469 199.121094 388.625 C 199.523438 389.324219 199.953125 390.058594 200.398438 390.8125 C 206.242188 400.644531 214.585938 414.6875 214.585938 414.6875 C 214.585938 414.6875 212.089844 405.324219 208.8125 393.03125 C 208.515625 391.914062 208.210938 390.773438 207.90625 389.613281" fill="#ff9000"/></g><g id="change8_1"><path d="M 335.160156 209.09375 C 336.324219 206.710938 337.046875 205.214844 337.046875 205.214844 C 337.046875 205.214844 336.316406 206.703125 335.160156 209.09375" fill="#fb0"/></g><g id="change8_2"><path d="M 316.398438 244.222656 C 311.644531 246.804688 303.453125 248.777344 301.347656 254.800781 C 298.140625 263.988281 298.105469 273.285156 301.269531 275.574219 C 304.4375 277.859375 309.609375 272.265625 312.816406 263.078125 C 314.625 257.910156 316.605469 251.03125 317.988281 246.007812 C 318.851562 242.882812 330.523438 218.660156 335.160156 209.09375 C 330.457031 218.734375 318.40625 243.136719 316.398438 244.222656" fill="#fb0"/></g><g id="change9_1"><path d="M 302.550781 256.523438 C 300.328125 261.214844 299.714844 266.175781 301.179688 267.613281 C 302.648438 269.050781 305.640625 266.410156 307.863281 261.722656 C 310.085938 257.035156 310.699219 252.070312 309.234375 250.636719 C 307.765625 249.199219 304.773438 251.835938 302.550781 256.523438" fill="#ffe965"/></g><g id="change8_3"><path d="M 316.8125 213.558594 C 312.058594 216.140625 303.867188 218.117188 301.761719 224.136719 C 298.554688 233.324219 298.519531 242.625 301.683594 244.910156 C 304.851562 247.195312 310.023438 241.601562 313.230469 232.414062 C 315.039062 227.246094 317.019531 220.371094 318.402344 215.347656 C 319.265625 212.222656 330.933594 188.011719 335.570312 178.4375 C 330.863281 188.085938 318.820312 212.472656 316.8125 213.558594" fill="#fb0"/></g><g id="change8_4"><path d="M 335.570312 178.4375 C 336.734375 176.050781 337.460938 174.550781 337.460938 174.550781 C 337.460938 174.550781 336.730469 176.042969 335.570312 178.4375" fill="#fb0"/></g><g id="change9_2"><path d="M 302.964844 225.859375 C 300.742188 230.550781 300.128906 235.515625 301.59375 236.949219 C 303.0625 238.386719 306.054688 235.75 308.277344 231.0625 C 310.5 226.371094 311.113281 221.40625 309.648438 219.972656 C 308.179688 218.535156 305.1875 221.175781 302.964844 225.859375" fill="#ffe965"/></g><g id="change8_5"><path d="M 317.230469 182.898438 C 312.472656 185.476562 304.28125 187.453125 302.175781 193.476562 C 298.96875 202.660156 298.933594 211.960938 302.101562 214.246094 C 305.265625 216.53125 310.4375 210.9375 313.644531 201.753906 C 315.453125 196.585938 317.433594 189.707031 318.816406 184.683594 C 319.679688 181.558594 331.351562 157.335938 335.988281 147.769531 C 331.285156 157.410156 319.234375 181.808594 317.230469 182.898438" fill="#fb0"/></g><g id="change8_6"><path d="M 335.988281 147.769531 C 337.152344 145.382812 337.871094 143.886719 337.871094 143.886719 C 337.871094 143.886719 337.144531 145.378906 335.988281 147.769531" fill="#fb0"/></g><g id="change9_3"><path d="M 303.378906 195.199219 C 301.15625 199.886719 300.542969 204.851562 302.007812 206.285156 C 303.476562 207.722656 306.46875 205.085938 308.691406 200.398438 C 310.914062 195.710938 311.527344 190.746094 310.0625 189.308594 C 308.59375 187.875 305.601562 190.511719 303.378906 195.199219" fill="#ffe965"/></g><g id="change8_7"><path d="M 317.644531 152.234375 C 312.886719 154.8125 304.695312 156.789062 302.589844 162.8125 C 299.382812 172 299.347656 181.300781 302.515625 183.585938 C 305.679688 185.871094 310.851562 180.277344 314.058594 171.089844 C 315.867188 165.921875 317.847656 159.046875 319.230469 154.019531 C 320.09375 150.894531 331.761719 126.6875 336.398438 117.113281 C 331.691406 126.761719 319.648438 151.148438 317.644531 152.234375" fill="#fb0"/></g><g id="change8_8"><path d="M 336.398438 117.113281 C 337.5625 114.722656 338.285156 113.226562 338.285156 113.226562 C 338.285156 113.226562 337.558594 114.71875 336.398438 117.113281" fill="#fb0"/></g><g id="change9_4"><path d="M 303.792969 164.535156 C 301.570312 169.226562 300.957031 174.1875 302.421875 175.625 C 303.890625 177.0625 306.882812 174.425781 309.105469 169.734375 C 311.328125 165.046875 311.941406 160.082031 310.476562 158.648438 C 309.007812 157.210938 306.015625 159.847656 303.792969 164.535156" fill="#ffe965"/></g><g id="change8_9"><path d="M 318.058594 121.570312 C 313.300781 124.152344 305.109375 126.128906 303.003906 132.148438 C 299.796875 141.335938 299.761719 150.636719 302.929688 152.921875 C 306.09375 155.207031 311.265625 149.613281 314.476562 140.429688 C 316.28125 135.257812 318.261719 128.382812 319.644531 123.355469 C 320.507812 120.230469 332.179688 96.011719 336.816406 86.441406 C 332.113281 96.085938 320.0625 120.484375 318.058594 121.570312" fill="#fb0"/></g><g id="change8_10"><path d="M 336.816406 86.441406 C 337.980469 84.058594 338.699219 82.5625 338.699219 82.5625 C 338.699219 82.5625 337.976562 84.054688 336.816406 86.441406" fill="#fb0"/></g><g id="change9_5"><path d="M 304.207031 133.871094 C 301.984375 138.5625 301.371094 143.523438 302.835938 144.960938 C 304.304688 146.398438 307.296875 143.761719 309.519531 139.070312 C 311.742188 134.386719 312.355469 129.421875 310.890625 127.984375 C 309.421875 126.550781 306.429688 129.183594 304.207031 133.871094" fill="#ffe965"/></g><g id="change8_11"><path d="M 318.472656 90.910156 C 313.714844 93.488281 305.523438 95.464844 303.417969 101.484375 C 300.210938 110.671875 300.175781 119.972656 303.34375 122.261719 C 306.507812 124.546875 311.679688 118.949219 314.890625 109.765625 C 316.695312 104.597656 318.675781 97.71875 320.058594 92.695312 C 320.921875 89.570312 332.589844 65.359375 337.226562 55.785156 C 332.519531 65.433594 320.476562 89.820312 318.472656 90.910156" fill="#fb0"/></g><g id="change8_12"><path d="M 337.226562 55.785156 C 338.394531 53.398438 339.113281 51.898438 339.113281 51.898438 C 339.113281 51.898438 338.386719 53.394531 337.226562 55.785156" fill="#fb0"/></g><g id="change9_6"><path d="M 304.621094 103.210938 C 302.398438 107.898438 301.785156 112.863281 303.25 114.300781 C 304.71875 115.734375 307.710938 113.097656 309.933594 108.410156 C 312.15625 103.722656 312.769531 98.757812 311.304688 97.320312 C 309.835938 95.886719 306.84375 98.523438 304.621094 103.210938" fill="#ffe965"/></g><g id="change8_13"><path d="M 300.984375 66.707031 C 300.40625 62.585938 300.621094 31.074219 300.621094 31.074219 C 300.621094 31.074219 298.746094 62.78125 298.480469 67.472656 C 298.070312 74.75 296.234375 70.957031 294.4375 83.179688 C 292.960938 93.238281 296.882812 101.933594 300.402344 101.382812 C 303.921875 100.828125 306.136719 92.09375 305.347656 81.871094 C 304.902344 76.117188 301.726562 72.011719 300.984375 66.707031" fill="#fb0"/></g><g id="change9_7"><path d="M 299.914062 74.019531 C 298.140625 73.957031 296.632812 78.507812 296.542969 84.183594 C 296.453125 89.855469 297.820312 94.507812 299.597656 94.566406 C 301.371094 94.628906 302.878906 90.078125 302.96875 84.402344 C 303.054688 78.730469 301.6875 74.078125 299.914062 74.019531" fill="#ffe965"/></g><g id="change8_14"><path d="M 262.554688 208.085938 C 261.449219 205.644531 260.753906 204.121094 260.753906 204.121094 C 260.753906 204.121094 261.441406 205.648438 262.554688 208.085938" fill="#fb0"/></g><g id="change8_15"><path d="M 280.574219 244.105469 C 278.59375 242.921875 267.054688 217.941406 262.554688 208.085938 C 266.988281 217.867188 278.152344 242.644531 278.949219 245.8125 C 280.230469 250.898438 282.066406 257.867188 283.765625 263.121094 C 286.78125 272.457031 291.832031 278.296875 295.046875 276.164062 C 298.257812 274.03125 298.417969 264.734375 295.398438 255.398438 C 293.421875 249.277344 285.277344 246.910156 280.574219 244.105469" fill="#fb0"/></g><g id="change9_8"><path d="M 287.605469 250.855469 C 286.109375 252.222656 286.621094 257.214844 288.742188 262.003906 C 290.867188 266.796875 293.804688 269.578125 295.300781 268.210938 C 296.796875 266.847656 296.289062 261.855469 294.164062 257.0625 C 292.039062 252.269531 289.101562 249.492188 287.605469 250.855469" fill="#ffe965"/></g><g id="change8_16"><path d="M 262.777344 177.414062 C 261.671875 174.976562 260.976562 173.453125 260.976562 173.453125 C 260.976562 173.453125 261.664062 174.980469 262.777344 177.414062" fill="#fb0"/></g><g id="change8_17"><path d="M 280.800781 213.4375 C 278.816406 212.253906 267.273438 187.269531 262.777344 177.414062 C 267.210938 187.191406 278.378906 211.980469 279.175781 215.144531 C 280.457031 220.234375 282.289062 227.199219 283.988281 232.453125 C 287.007812 241.789062 292.058594 247.628906 295.269531 245.496094 C 298.484375 243.363281 298.640625 234.066406 295.625 224.730469 C 293.648438 218.613281 285.503906 216.242188 280.800781 213.4375" fill="#fb0"/></g><g id="change9_9"><path d="M 287.832031 220.1875 C 286.335938 221.554688 286.84375 226.546875 288.96875 231.339844 C 291.09375 236.132812 294.027344 238.910156 295.527344 237.546875 C 297.023438 236.179688 296.511719 231.1875 294.386719 226.394531 C 292.261719 221.605469 289.328125 218.824219 287.832031 220.1875" fill="#ffe965"/></g><g id="change8_18"><path d="M 263 146.746094 C 261.894531 144.308594 261.203125 142.785156 261.203125 142.785156 C 261.203125 142.785156 261.890625 144.3125 263 146.746094" fill="#fb0"/></g><g id="change8_19"><path d="M 281.023438 182.769531 C 279.042969 181.585938 267.5 156.605469 263 146.746094 C 267.433594 156.523438 278.601562 181.3125 279.398438 184.476562 C 280.679688 189.566406 282.515625 196.53125 284.214844 201.785156 C 287.230469 211.121094 292.28125 216.964844 295.492188 214.828125 C 298.707031 212.695312 298.867188 203.398438 295.847656 194.0625 C 293.871094 187.945312 285.726562 185.574219 281.023438 182.769531" fill="#fb0"/></g><g id="change9_10"><path d="M 288.054688 189.519531 C 286.558594 190.886719 287.066406 195.878906 289.191406 200.671875 C 291.316406 205.464844 294.253906 208.242188 295.75 206.878906 C 297.246094 205.511719 296.738281 200.519531 294.613281 195.730469 C 292.488281 190.9375 289.550781 188.15625 288.054688 189.519531" fill="#ffe965"/></g><g id="change8_20"><path d="M 263.226562 116.082031 C 262.121094 113.640625 261.425781 112.117188 261.425781 112.117188 C 261.425781 112.117188 262.113281 113.644531 263.226562 116.082031" fill="#fb0"/></g><g id="change8_21"><path d="M 281.25 152.101562 C 279.265625 150.917969 267.726562 125.941406 263.226562 116.082031 C 267.660156 125.863281 278.828125 150.644531 279.621094 153.808594 C 280.902344 158.898438 282.738281 165.867188 284.4375 171.117188 C 287.453125 180.457031 292.503906 186.296875 295.71875 184.160156 C 298.929688 182.027344 299.089844 172.730469 296.074219 163.394531 C 294.09375 157.277344 285.949219 154.90625 281.25 152.101562" fill="#fb0"/></g><g id="change9_11"><path d="M 288.277344 158.855469 C 286.78125 160.21875 287.292969 165.210938 289.417969 170.003906 C 291.542969 174.796875 294.476562 177.574219 295.972656 176.210938 C 297.46875 174.847656 296.960938 169.855469 294.835938 165.0625 C 292.710938 160.269531 289.773438 157.488281 288.277344 158.855469" fill="#ffe965"/></g><g id="change8_22"><path d="M 281.472656 121.433594 C 279.492188 120.25 267.949219 95.273438 263.449219 85.414062 C 267.882812 95.195312 279.050781 119.976562 279.847656 123.140625 C 281.128906 128.230469 282.964844 135.199219 284.660156 140.453125 C 287.679688 149.789062 292.730469 155.628906 295.941406 153.496094 C 299.15625 151.363281 299.3125 142.066406 296.296875 132.730469 C 294.320312 126.609375 286.175781 124.238281 281.472656 121.433594" fill="#fb0"/></g><g id="change8_23"><path d="M 263.449219 85.414062 C 262.34375 82.976562 261.652344 81.453125 261.652344 81.453125 C 261.652344 81.453125 262.339844 82.980469 263.449219 85.414062" fill="#fb0"/></g><g id="change9_12"><path d="M 288.503906 128.1875 C 287.007812 129.550781 287.515625 134.542969 289.640625 139.335938 C 291.765625 144.128906 294.703125 146.90625 296.199219 145.542969 C 297.695312 144.179688 297.183594 139.1875 295.058594 134.394531 C 292.933594 129.601562 290 126.820312 288.503906 128.1875" fill="#ffe965"/></g><g id="change8_24"><path d="M 266.707031 52.671875 C 266.296875 51.476562 266.054688 50.773438 266.054688 50.773438 C 266.054688 50.773438 266.296875 51.476562 266.707031 52.671875" fill="#fb0"/></g><g id="change8_25"><path d="M 281.695312 90.765625 C 279.554688 89.488281 269.386719 60.414062 266.707031 52.671875 C 269.351562 60.34375 279.210938 89.050781 280.070312 92.476562 C 281.351562 97.5625 283.1875 104.53125 284.886719 109.785156 C 287.902344 119.121094 292.953125 124.960938 296.167969 122.828125 C 299.378906 120.695312 299.539062 111.398438 296.519531 102.0625 C 294.542969 95.941406 286.398438 93.574219 281.695312 90.765625" fill="#fb0"/></g><g id="change9_13"><path d="M 288.726562 97.519531 C 287.230469 98.886719 287.738281 103.875 289.863281 108.667969 C 291.988281 113.460938 294.925781 116.238281 296.421875 114.875 C 297.917969 113.511719 297.410156 108.519531 295.285156 103.726562 C 293.160156 98.933594 290.222656 96.15625 288.726562 97.519531" fill="#ffe965"/></g><g id="change8_26"><path d="M 298.964844 282.382812 C 296.714844 282.386719 294.78125 280.578125 294.785156 281.558594 C 294.785156 282.414062 296.175781 283.894531 298.019531 284.261719 C 297.683594 286.488281 297.804688 290.789062 297.816406 295.96875 C 297.816406 295.96875 297.699219 316.035156 297.546875 341.835938 C 297.53125 344.414062 297.519531 347.050781 297.503906 349.730469 C 297.476562 353.5 297.464844 357.636719 297.449219 361.871094 C 297.441406 363.992188 297.433594 366.136719 297.421875 368.269531 C 297.523438 389.269531 298.578125 411.269531 297.042969 431.789062 C 297.007812 435.039062 296.988281 438.011719 296.972656 440.640625 C 296.925781 448.515625 296.898438 453.285156 296.898438 453.285156 C 296.917969 460.90625 297.996094 467.085938 299.308594 467.082031 C 300.617188 467.078125 301.664062 460.894531 301.648438 453.273438 C 301.648438 453.273438 301.605469 450.097656 301.535156 444.65625 C 301.589844 416.261719 301.519531 387.261719 300.4375 358.953125 C 300.402344 356.234375 300.367188 353.539062 300.335938 350.890625 C 299.960938 321.742188 299.652344 297.738281 299.652344 297.738281 C 299.640625 292.289062 299.910156 286.902344 299.585938 284.273438 C 301.488281 283.945312 302.929688 282.410156 302.925781 281.539062 C 302.925781 280.5625 301.210938 282.378906 298.964844 282.382812" fill="#fb0"/></g><g id="change8_27"><path d="M 297.109375 385.410156 C 299.0625 370.503906 295.257812 357.03125 291.3125 343.113281 C 291.144531 341.910156 290.984375 340.707031 290.820312 339.496094 C 290.644531 338.207031 290.472656 336.910156 290.296875 335.613281 C 290.441406 321.078125 290.820312 306.914062 284.636719 293.039062 C 284.382812 291.808594 284.203125 290.582031 284.035156 289.363281 C 279.921875 258.945312 247.039062 246.492188 247.039062 246.492188 C 247.039062 246.492188 277.394531 259.304688 278.253906 288.070312 C 278.292969 289.324219 278.332031 290.582031 278.371094 291.847656 C 281.726562 307.457031 280.089844 322.140625 279.730469 337.414062 C 279.765625 338.601562 279.800781 339.773438 279.832031 340.933594 C 279.617188 350.011719 282.957031 358.207031 283.125 367.480469 C 283.1875 371.894531 281.265625 375.988281 281.941406 379.925781 C 282.136719 382.121094 283.992188 384.664062 285.277344 386.78125 C 285.679688 387.480469 286.109375 388.210938 286.554688 388.96875 C 292.398438 398.800781 300.742188 412.84375 300.742188 412.84375 C 300.742188 412.84375 299.570312 404.183594 297.746094 390.6875 C 297.515625 389 297.28125 387.234375 297.109375 385.410156" fill="#fb0"/></g><g id="change9_14"><path d="M 295.449219 390.027344 C 293.65625 383.203125 296.28125 375.976562 295.984375 368.921875 C 295.648438 361.429688 292.140625 355.007812 290.21875 348.050781 C 289.738281 346.3125 288.933594 344.59375 288.988281 342.746094 C 288.824219 341.574219 288.660156 340.40625 288.503906 339.238281 C 288.335938 338.023438 288.171875 336.8125 288.007812 335.605469 C 286.960938 329.683594 288.078125 323.871094 288.507812 317.65625 C 288.988281 308.347656 283.417969 300.726562 282.070312 291.960938 C 281.832031 290.453125 282.539062 288.867188 282.363281 287.605469 C 281.671875 282.546875 273.199219 268.09375 273.199219 268.09375 C 273.199219 268.09375 280.433594 282.085938 280.542969 286.050781 C 280.578125 287.371094 279.945312 289 279.988281 290.65625 C 283.53125 306.109375 283.832031 320.148438 281.921875 335.460938 C 281.953125 336.753906 281.988281 338.039062 282.019531 339.324219 C 281.695312 347.675781 284.347656 355.472656 286.058594 363.769531 C 287.332031 370.765625 283.941406 376.710938 283.40625 383.398438 C 283.40625 383.398438 284.222656 384.808594 285.511719 386.929688 C 286.167969 387.992188 286.953125 389.226562 287.796875 390.550781 C 292.011719 397.171875 297.632812 406.003906 297.632812 406.003906 C 297.632812 406.003906 297.039062 401.660156 296.070312 394.589844 C 295.878906 393.171875 295.667969 391.648438 295.449219 390.027344" fill="#ffe965"/></g><g id="change10_1"><path d="M 294.0625 387.769531 C 294.308594 372.113281 293.488281 357.953125 285.695312 345.75 C 285.128906 343.886719 284.242188 342.054688 283.835938 340.546875 C 282.628906 336.019531 285.730469 322.398438 285.730469 322.398438 C 285.730469 322.398438 279.667969 335.433594 279.757812 338.378906 C 279.800781 339.851562 279.855469 341.597656 279.914062 343.53125 C 279.554688 345.59375 279.75 347.792969 280.269531 349.972656 C 282.824219 360.425781 283.644531 369.65625 281.425781 379.617188 C 281.425781 379.617188 282.125 380.941406 283.234375 383.0625 C 283.792969 384.121094 284.480469 385.382812 285.277344 386.78125 C 285.679688 387.480469 286.109375 388.210938 286.554688 388.96875 C 292.398438 398.800781 300.742188 412.84375 300.742188 412.84375 C 300.742188 412.84375 298.246094 403.480469 294.96875 391.1875 C 294.671875 390.070312 294.367188 388.929688 294.0625 387.769531" fill="#f6a400"/></g></g></svg>