<?xml version="1.0" encoding="UTF-8" standalone="no"?><svg xmlns="http://www.w3.org/2000/svg" xmlns:xlink="http://www.w3.org/1999/xlink" fill="#000000" height="500" preserveAspectRatio="xMidYMid meet" version="1" viewBox="0.0 0.0 393.1 500.0" width="393.1" zoomAndPan="magnify"><linearGradient gradientUnits="userSpaceOnUse" id="a" x1="345.318" x2="103.946" xlink:actuate="onLoad" xlink:show="other" xlink:type="simple" y1="532.4" y2="-27.281"><stop offset="0" stop-color="#a68300"/><stop offset="0.566" stop-color="#efcb58"/><stop offset="0.978" stop-color="#a68300"/></linearGradient><path d="M250,500C112.1,500,0,387.8,0,250c0-66.8,26-129.6,73.3-176.8C120.4,26,183.2,0,250,0 c38.7,0,75.9,8.6,110.3,25.6c23.3,11.5,32.8,39.7,21.4,62.9c-11.5,23.3-39.7,32.8-62.9,21.4C297.3,99.3,274.2,94,250,94 c-41.7,0-80.9,16.2-110.3,45.7C110.2,169.1,94,208.3,94,250c0,86,70,156,156,156c24.2,0,47.3-5.4,68.8-15.9 c23.3-11.4,51.4-1.8,62.9,21.5c11.4,23.3,1.8,51.5-21.5,62.9C325.8,491.4,288.7,500,250,500z" fill="url(#a)"/></svg>